<svg width="57" height="64" viewBox="0 0 57 64" fill="none" xmlns="http://www.w3.org/2000/svg">
<path d="M40.2278 45.2952C41.3007 44.5923 42.2256 43.7784 43.0765 42.8905V26.4641C43.0765 23.1714 40.4128 20.5077 37.1201 20.5077V47.293L40.2278 45.2952Z" fill="#1F3870"/>
<path d="M16.9571 45.2952L19.7688 47.1451V20.5447C16.4762 20.5447 13.8124 23.2084 13.8124 26.5011V42.6315C14.7373 43.6304 15.7732 44.5183 16.9571 45.2952Z" fill="#1F3870"/>
<path d="M56.3582 0.307739C53.0656 0.307739 50.4018 2.97148 50.4018 6.26415V31.7916C50.4018 38.229 47.1831 44.1854 41.7817 47.737L32.5326 53.8045C30.1278 55.3953 26.9831 55.3953 24.5784 53.8045L15.3293 47.737C9.92784 44.1854 6.70916 38.229 6.70916 31.7916V6.26415C6.70916 2.97148 4.04542 0.307739 0.752747 0.307739V31.7916C0.752747 40.2268 5.00733 48.07 12.0366 52.6946L27.5751 62.9055C28.167 63.2755 28.907 63.2755 29.4989 62.9055L45.0374 52.6946C52.0667 48.07 56.3212 40.1898 56.3212 31.7916L56.3582 0.307739Z" fill="#1F3870"/>
<path d="M16.7721 16.5122C18.4067 16.5122 19.7318 15.1871 19.7318 13.5525C19.7318 11.9179 18.4067 10.5928 16.7721 10.5928C15.1375 10.5928 13.8124 11.9179 13.8124 13.5525C13.8124 15.1871 15.1375 16.5122 16.7721 16.5122Z" fill="#1F3870"/>
<path d="M40.1169 16.5122C41.7515 16.5122 43.0766 15.1871 43.0766 13.5525C43.0766 11.9179 41.7515 10.5928 40.1169 10.5928C38.4823 10.5928 37.1572 11.9179 37.1572 13.5525C37.1572 15.1871 38.4823 16.5122 40.1169 16.5122Z" fill="#667FBC"/>
<path d="M28.611 16.5122C30.2456 16.5122 31.5707 15.1871 31.5707 13.5525C31.5707 11.9179 30.2456 10.5928 28.611 10.5928C26.9764 10.5928 25.6513 11.9179 25.6513 13.5525C25.6513 15.1871 26.9764 16.5122 28.611 16.5122Z" fill="#426BB3"/>
</svg>
